<?xml version="1.0" encoding="utf-8"?>
<!-- Generator: Adobe Illustrator 22.0.0, SVG Export Plug-In . SVG Version: 6.00 Build 0)  -->
<svg version="1.1" xmlns="http://www.w3.org/2000/svg" xmlns:xlink="http://www.w3.org/1999/xlink" x="0px" y="0px"
	 viewBox="0 0 65 65" style="enable-background:new 0 0 65 65;" xml:space="preserve">
<style type="text/css">
	
    .ws1{fill:none;stroke:#87B948;stroke-width:4;}
    .ws2{fill:none;stroke:#E61b05;stroke-width:5;}
	.st0{fill:none;stroke:#87B948;stroke-width:4;}
	.st1{fill:#E61b05;}
	.st2{fill:none;stroke:#FAFAFA;stroke-width:4;}
	.st3{fill:#FAFAFA;}
	.st4{fill:none;stroke:#E61b05;stroke-width:5;}
	.st5{fill:none;stroke:#FAFAFA;stroke-width:5;}
	.st6{fill:#87B948;}
	.st7{opacity:0.1;fill-rule:evenodd;clip-rule:evenodd;fill:#FFFFFF;}
	.st8{fill-rule:evenodd;clip-rule:evenodd;fill:none;stroke:#87B948;stroke-width:7.2222;stroke-miterlimit:100;}
	.st9{fill-rule:evenodd;clip-rule:evenodd;fill:#87B948;}
	.st10{fill-rule:evenodd;clip-rule:evenodd;fill:#E61b05;}
	.st11{fill:none;stroke:#E61b05;stroke-width:3;}
	.st12{fill:none;stroke:#FAFAFA;stroke-width:3;}
	.st17{fill:none;stroke:#E61b05;stroke-width:2;}
	.st18{fill:none;stroke:#E61b05;}
	.st20{fill:none;stroke:#FAFAFA;stroke-width:2;}
	.st21{fill:none;stroke:#FAFAFA;}
      g { display: none }
      g:target { display: inline }
</style>
<g id="speed">
	<path class="st0" d="M2.9,32.1c4.3-5.3,11.4-6.7,21-5C60.8-14.4,82.1,2.8,38.7,41c1.7,8.4,0,15.3-5.6,20.8L2.9,32.1z"/>
	<circle class="st0" cx="43.9" cy="21.7" r="4.8"/>
	<path class="st1" d="M3.5,53.8c-0.4-1.1-0.5-1.9-0.7-2.8c0.4-0.3,0.7-0.6,1-0.8l1.9-1.7l1.9-1.7l1-0.9l1.3,0.5l0.6,0.2l0.7,0.3
			l0.2,0.7l0.2,0.7l0.3,1.3l-1,0.9l-1.9,1.7L7.2,54c-0.3,0.3-0.7,0.6-1,0.9C5.4,54.6,4.6,54.3,3.5,53.8z"/>
    <path class="st1" d="M11.3,61.6c-0.4-1.1-0.5-1.9-0.7-2.8c0.4-0.3,0.7-0.6,1-0.8l1.9-1.7l1.9-1.7l1-0.9l1.3,0.5l0.6,0.2l0.7,0.3
			l0.2,0.7l0.2,0.7l0.3,1.3l-1,0.9L16.8,60l-1.9,1.7c-0.3,0.3-0.7,0.6-1,0.9C13.1,62.4,12.3,62.1,11.3,61.6z"/>
</g>
<g id="speed2">
	<path class="st2" d="M2.9,32.1c4.3-5.3,11.4-6.7,21-5C60.8-14.4,82.1,2.8,38.7,41c1.7,8.4,0,15.3-5.6,20.8L2.9,32.1z"/>
	<circle class="st2" cx="43.9" cy="21.7" r="4.8"/>
		<path class="st3" d="M3.5,53.8c-0.4-1.1-0.5-1.9-0.7-2.8c0.4-0.3,0.7-0.6,1-0.8l1.9-1.7l1.9-1.7l1-0.9l1.3,0.5l0.6,0.2l0.7,0.3
			l0.2,0.7l0.2,0.7l0.3,1.3l-1,0.9l-1.9,1.7L7.2,54c-0.3,0.3-0.7,0.6-1,0.9C5.4,54.6,4.6,54.3,3.5,53.8z"/>
		<path class="st3" d="M11.3,61.6c-0.4-1.1-0.5-1.9-0.7-2.8c0.4-0.3,0.7-0.6,1-0.8l1.9-1.7l1.9-1.7l1-0.9l1.3,0.5l0.6,0.2l0.7,0.3
			l0.2,0.7l0.2,0.7l0.3,1.3l-1,0.9L16.8,60l-1.9,1.7c-0.3,0.3-0.7,0.6-1,0.9C13.1,62.4,12.3,62.1,11.3,61.6z"/>
</g>
<g id="txt">
	<path class="st0" d="M9,62.4V8.3h18.9c0-7.8,10-7.9,10,0h18.8v54.1H9z"/>
	<line class="st4" x1="18.9" y1="28.7" x2="47.4" y2="28.7"/>
	<line class="st4" x1="18.9" y1="38.3" x2="47.4" y2="38.3"/>
	<polyline class="st0" points="20.9,8.8 20.9,17.6 44.7,17.6 44.7,9.8 	"/>
</g>
<g id="txt2">
	<path class="st2" d="M9,62.4V8.3h18.9c0-7.8,10-7.9,10,0h18.8v54.1H9z"/>
	<line class="st5" x1="18.9" y1="28.7" x2="47.4" y2="28.7"/>
	<line class="st5" x1="18.9" y1="38.3" x2="47.4" y2="38.3"/>
	<polyline class="st2" points="20.9,8.8 20.9,17.6 44.7,17.6 44.7,9.8 	"/>
</g>
<g id="seo">
	<circle class="st0" cx="36.8" cy="29.2" r="26.1"/>
	<path class="st1" d="M27,32.9c0,1.5-0.5,2.7-1.6,3.5c-1.1,0.9-2.6,1.3-4.5,1.3c-1.8,0-3.3-0.3-4.7-1v-3.2c1.1,0.5,2.1,0.8,2.8,1
		c0.8,0.2,1.5,0.3,2.1,0.3c0.8,0,1.4-0.1,1.8-0.4s0.6-0.7,0.6-1.3c0-0.3-0.1-0.6-0.3-0.9c-0.2-0.3-0.4-0.5-0.8-0.7
		c-0.3-0.2-1.1-0.6-2.1-1.1c-1-0.5-1.8-0.9-2.3-1.4c-0.5-0.4-0.9-0.9-1.2-1.5c-0.3-0.6-0.5-1.3-0.5-2c0-1.5,0.5-2.6,1.5-3.4
		c1-0.8,2.4-1.3,4.1-1.3c0.9,0,1.7,0.1,2.5,0.3c0.8,0.2,1.6,0.5,2.4,0.9l-1.1,2.7c-0.9-0.4-1.6-0.6-2.2-0.8
		c-0.6-0.1-1.1-0.2-1.7-0.2c-0.7,0-1.2,0.2-1.5,0.5c-0.4,0.3-0.5,0.7-0.5,1.2c0,0.3,0.1,0.6,0.2,0.8c0.1,0.2,0.4,0.5,0.7,0.7
		c0.3,0.2,1,0.6,2.2,1.2c1.5,0.7,2.6,1.5,3.2,2.2C26.7,30.9,27,31.8,27,32.9z"/>
	<path class="st1" d="M39.5,37.4H30V21h9.5v2.9h-6v3.6h5.6v2.9h-5.6v4.2h6V37.4z"/>
	<path class="st1" d="M57.9,29.2c0,2.7-0.7,4.8-2,6.3c-1.4,1.5-3.3,2.2-5.8,2.2c-2.5,0-4.5-0.7-5.8-2.2c-1.4-1.5-2-3.6-2-6.3
		c0-2.7,0.7-4.8,2-6.3c1.4-1.4,3.3-2.2,5.8-2.2s4.5,0.7,5.8,2.2S57.9,26.4,57.9,29.2z M45.8,29.2c0,1.8,0.3,3.2,1,4.2
		c0.7,0.9,1.7,1.4,3.1,1.4c2.8,0,4.2-1.9,4.2-5.6c0-3.7-1.4-5.6-4.2-5.6c-1.4,0-2.4,0.5-3.1,1.4C46.2,26,45.8,27.3,45.8,29.2z"/>
		<path class="st6" d="M18.9,48.9c0.6,1.8,0.8,3.2,1.1,4.6c-0.6,0.5-1.2,1.2-1.8,1.7l-3.6,3.6l-3.6,3.6l-1.8,1.8
			c-1.5-0.3-2.9-0.5-4.6-1.1c-0.5-1.7-0.8-3.2-1.1-4.6l1.8-1.8L9,53.1l3.6-3.6c0.6-0.6,1.2-1.2,1.7-1.8C15.7,48,17.1,48.3,18.9,48.9
			z"/>
</g>
<g id="seo2">
	<circle class="st2" cx="36.8" cy="29.2" r="26.1"/>
	<path class="st3" d="M27,32.9c0,1.5-0.5,2.7-1.6,3.5c-1.1,0.9-2.6,1.3-4.5,1.3c-1.8,0-3.3-0.3-4.7-1v-3.2c1.1,0.5,2.1,0.8,2.8,1
		c0.8,0.2,1.5,0.3,2.1,0.3c0.8,0,1.4-0.1,1.8-0.4s0.6-0.7,0.6-1.3c0-0.3-0.1-0.6-0.3-0.9c-0.2-0.3-0.4-0.5-0.8-0.7
		c-0.3-0.2-1.1-0.6-2.1-1.1c-1-0.5-1.8-0.9-2.3-1.4c-0.5-0.4-0.9-0.9-1.2-1.5c-0.3-0.6-0.5-1.3-0.5-2c0-1.5,0.5-2.6,1.5-3.4
		c1-0.8,2.4-1.3,4.1-1.3c0.9,0,1.7,0.1,2.5,0.3c0.8,0.2,1.6,0.5,2.4,0.9l-1.1,2.7c-0.9-0.4-1.6-0.6-2.2-0.8
		c-0.6-0.1-1.1-0.2-1.7-0.2c-0.7,0-1.2,0.2-1.5,0.5c-0.4,0.3-0.5,0.7-0.5,1.2c0,0.3,0.1,0.6,0.2,0.8c0.1,0.2,0.4,0.5,0.7,0.7
		c0.3,0.2,1,0.6,2.2,1.2c1.5,0.7,2.6,1.5,3.2,2.2C26.7,30.9,27,31.8,27,32.9z"/>
	<path class="st3" d="M39.5,37.4H30V21h9.5v2.9h-6v3.6h5.6v2.9h-5.6v4.2h6V37.4z"/>
	<path class="st3" d="M57.9,29.2c0,2.7-0.7,4.8-2,6.3c-1.4,1.5-3.3,2.2-5.8,2.2c-2.5,0-4.5-0.7-5.8-2.2c-1.4-1.5-2-3.6-2-6.3
		c0-2.7,0.7-4.8,2-6.3c1.4-1.4,3.3-2.2,5.8-2.2s4.5,0.7,5.8,2.2S57.9,26.4,57.9,29.2z M45.8,29.2c0,1.8,0.3,3.2,1,4.2
		c0.7,0.9,1.7,1.4,3.1,1.4c2.8,0,4.2-1.9,4.2-5.6c0-3.7-1.4-5.6-4.2-5.6c-1.4,0-2.4,0.5-3.1,1.4C46.2,26,45.8,27.3,45.8,29.2z"/>
		<path class="st3" d="M18.9,48.9c0.6,1.8,0.8,3.2,1.1,4.6c-0.6,0.5-1.2,1.2-1.8,1.7l-3.6,3.6l-3.6,3.6l-1.8,1.8
			c-1.5-0.3-2.9-0.5-4.6-1.1c-0.5-1.7-0.8-3.2-1.1-4.6l1.8-1.8L9,53.1l3.6-3.6c0.6-0.6,1.2-1.2,1.7-1.8C15.7,48,17.1,48.3,18.9,48.9
			z"/>
</g>
<g id="logo">
	<circle class="st7" cx="33" cy="33" r="11"/>
	<circle class="st8" cx="32.5" cy="32.5" r="12.6"/>
	
		<rect x="4.3" y="43.2" transform="matrix(0.7071 -0.7071 0.7071 0.7071 -29.5301 25.245)" class="st9" width="22.9" height="10.2"/>
	<path class="st10" d="M55.7,34.1v21.6H34.1L24.8,65H65V24.8L55.7,34.1z M40.2,0H0v40.2l9.3-9.3V9.3h21.6L40.2,0z"/>
</g>
<g id="check">
	<path class="st0" d="M9,62.4V8.3h18.9c0-7.8,10-7.9,10,0h18.8v54.1H9z"/>
	<line class="st4" x1="29" y1="46.7" x2="47.2" y2="28.6"/>
	
		<line class="ws2" x1="21.4" y1="35.8" x2="32.5" y2="46.9"/>
	
		<polyline class="ws1" points="
		20.9,8.8 20.9,17.6 44.7,17.6 44.7,9.8 	"/>
</g>
<g id="check2">
	<path class="st2" d="M9,62.4V8.3h18.9c0-7.8,10-7.9,10,0h18.8v54.1H9z"/>
	<line class="st5" x1="29" y1="46.7" x2="47.2" y2="28.6"/>
	<line class="st5" x1="21.4" y1="35.8" x2="32.5" y2="46.9"/>
	<polyline class="st2" points="20.9,8.8 20.9,17.6 44.7,17.6 44.7,9.8 	"/>
</g>
<g id="order">
	
		<polyline class="ws1" points="
		1,11.5 11,11.5 20,43.6 54.1,43.6 62.5,16.5 	"/>
	
		<circle class="ws1" cx="25" cy="56" r="6"/>
	
		<circle class="ws1" cx="50" cy="56" r="6"/>
	
		<circle class="ws2" cx="37.1" cy="14.8" r="8.5"/>

		<path class="st1" d="M26.6,4.6l0.8-0.5L28,3.8l1.3-0.7c0.2,0.2,0.4,0.4,0.6,0.6l1.2,1.2l1.2,1.2l0.6,0.6L32.2,8l-0.4,0.7l-0.5,0.7
			l-0.7,0.5L30,10.2l-1.3,0.7l-0.6-0.6l-1.2-1.2l-1.2-1.2c-0.2-0.2-0.4-0.4-0.6-0.6L25.8,6l0.4-0.7L26.6,4.6z"/>

		<path class="st1" d="M42.6,20.6l0.8-0.5l0.7-0.4l1.3-0.7c0.2,0.2,0.4,0.4,0.6,0.6l1.2,1.2l1.2,1.2l0.6,0.6L48.2,24l-0.4,0.7
			l-0.5,0.7l-0.7,0.5L46,26.2l-1.3,0.7l-0.6-0.6l-1.2-1.2l-1.2-1.2c-0.2-0.2-0.4-0.4-0.6-0.6l0.7-1.3l0.4-0.7L42.6,20.6z"/>

		<path class="st1" d="M22.3,15l0.2-0.9l0.2-0.7l0.4-1.4c0.3,0.1,0.6,0,0.8,0h1.7h1.7h0.8l0.4,1.4l0.2,0.7l0.2,0.8l-0.2,0.8
			l-0.2,0.7L28.2,18h-0.8h-1.7H24c-0.3,0-0.6,0-0.8,0l-0.4-1.4l-0.2-0.7L22.3,15z"/>

		<path class="st1" d="M44.9,15l0.2-0.9l0.2-0.7l0.4-1.4c0.3,0.1,0.6,0,0.8,0h1.7H50h0.8l0.4,1.4l0.2,0.7l0.2,0.8l-0.2,0.8l-0.2,0.7
			L50.8,18H50h-1.7h-1.7c-0.3,0-0.6,0-0.8,0l-0.4-1.4l-0.2-0.7L44.9,15z"/>

		<path class="st1" d="M26.6,25.4l-0.5-0.8L25.8,24l-0.7-1.3c0.2-0.2,0.4-0.4,0.6-0.6l1.2-1.2l1.2-1.2l0.6-0.6l1.3,0.7l0.7,0.4
			l0.7,0.5l0.5,0.7l0.4,0.7l0.7,1.3l-0.6,0.6l-1.2,1.2l-1.2,1.2c-0.2,0.2-0.4,0.4-0.6,0.6L28,26.2l-0.7-0.4L26.6,25.4z"/>

		<path class="st1" d="M42.6,9.4l-0.5-0.8L41.8,8l-0.7-1.3c0.2-0.2,0.4-0.4,0.6-0.6l1.2-1.2l1.2-1.2l0.6-0.6L46,3.8l0.7,0.4l0.7,0.5
			l0.5,0.7L48.2,6l0.7,1.3l-0.6,0.6l-1.2,1.2l-1.2,1.2c-0.2,0.2-0.4,0.4-0.6,0.6L44,10.2l-0.7-0.4L42.6,9.4z"/>

		<path class="st1" d="M37,29.7l-0.9-0.2l-0.7-0.2L34,28.8c0.1-0.3,0-0.6,0-0.8v-1.7v-1.7v-0.8l1.4-0.4l0.7-0.2l0.8-0.2l0.8,0.2
			l0.7,0.2l1.4,0.4v0.8v1.7V28c0,0.3,0,0.6,0,0.8l-1.4,0.4l-0.7,0.2L37,29.7z"/>

		<path class="st1" d="M37,7.1l-0.9-0.2l-0.7-0.2L34,6.2c0.1-0.3,0-0.6,0-0.8V3.7V2V1.2l1.4-0.4l0.7-0.2L37,0.3l0.8,0.2l0.7,0.2
			L40,1.2V2v1.7v1.7c0,0.3,0,0.6,0,0.8l-1.4,0.4l-0.7,0.2L37,7.1z"/>

</g>
<g id="order2">
	<polyline class="st2" points="1,11.5 11,11.5 20,43.6 54.1,43.6 62.5,16.5 	"/>
	<circle class="st2" cx="25" cy="56" r="6"/>
	<circle class="st2" cx="50" cy="56" r="6"/>
	<circle class="st5" cx="37.1" cy="14.8" r="8.5"/>

		<path class="st3" d="M26.6,4.6l0.8-0.5L28,3.8l1.3-0.7c0.2,0.2,0.4,0.4,0.6,0.6l1.2,1.2l1.2,1.2l0.6,0.6L32.2,8l-0.4,0.7l-0.5,0.7
			l-0.7,0.5L30,10.2l-1.3,0.7l-0.6-0.6l-1.2-1.2l-1.2-1.2c-0.2-0.2-0.4-0.4-0.6-0.6L25.8,6l0.4-0.7L26.6,4.6z"/>

		<path class="st3" d="M42.6,20.6l0.8-0.5l0.7-0.4l1.3-0.7c0.2,0.2,0.4,0.4,0.6,0.6l1.2,1.2l1.2,1.2l0.6,0.6L48.2,24l-0.4,0.7
			l-0.5,0.7l-0.7,0.5L46,26.2l-1.3,0.7l-0.6-0.6l-1.2-1.2l-1.2-1.2c-0.2-0.2-0.4-0.4-0.6-0.6l0.7-1.3l0.4-0.7L42.6,20.6z"/>

		<path class="st3" d="M22.3,15l0.2-0.9l0.2-0.7l0.4-1.4c0.3,0.1,0.6,0,0.8,0h1.7h1.7h0.8l0.4,1.4l0.2,0.7l0.2,0.8l-0.2,0.8
			l-0.2,0.7L28.2,18h-0.8h-1.7H24c-0.3,0-0.6,0-0.8,0l-0.4-1.4l-0.2-0.7L22.3,15z"/>

		<path class="st3" d="M44.9,15l0.2-0.9l0.2-0.7l0.4-1.4c0.3,0.1,0.6,0,0.8,0h1.7H50h0.8l0.4,1.4l0.2,0.7l0.2,0.8l-0.2,0.8l-0.2,0.7
			L50.8,18H50h-1.7h-1.7c-0.3,0-0.6,0-0.8,0l-0.4-1.4l-0.2-0.7L44.9,15z"/>

		<path class="st3" d="M26.6,25.4l-0.5-0.8L25.8,24l-0.7-1.3c0.2-0.2,0.4-0.4,0.6-0.6l1.2-1.2l1.2-1.2l0.6-0.6l1.3,0.7l0.7,0.4
			l0.7,0.5l0.5,0.7l0.4,0.7l0.7,1.3l-0.6,0.6l-1.2,1.2l-1.2,1.2c-0.2,0.2-0.4,0.4-0.6,0.6L28,26.2l-0.7-0.4L26.6,25.4z"/>

		<path class="st3" d="M42.6,9.4l-0.5-0.8L41.8,8l-0.7-1.3c0.2-0.2,0.4-0.4,0.6-0.6l1.2-1.2l1.2-1.2l0.6-0.6L46,3.8l0.7,0.4l0.7,0.5
			l0.5,0.7L48.2,6l0.7,1.3l-0.6,0.6l-1.2,1.2l-1.2,1.2c-0.2,0.2-0.4,0.4-0.6,0.6L44,10.2l-0.7-0.4L42.6,9.4z"/>

		<path class="st3" d="M37,29.7l-0.9-0.2l-0.7-0.2L34,28.8c0.1-0.3,0-0.6,0-0.8v-1.7v-1.7v-0.8l1.4-0.4l0.7-0.2l0.8-0.2l0.8,0.2
			l0.7,0.2l1.4,0.4v0.8v1.7V28c0,0.3,0,0.6,0,0.8l-1.4,0.4l-0.7,0.2L37,29.7z"/>

		<path class="st3" d="M37,7.1l-0.9-0.2l-0.7-0.2L34,6.2c0.1-0.3,0-0.6,0-0.8V3.7V2V1.2l1.4-0.4l0.7-0.2L37,0.3l0.8,0.2l0.7,0.2
			L40,1.2V2v1.7v1.7c0,0.3,0,0.6,0,0.8l-1.4,0.4l-0.7,0.2L37,7.1z"/>

</g>
<g id="geek">
	<path class="ws1" d="
		M11.5,56.9c-0.6-5.8,4.6-10.3,12-10.9c4.5-0.3,10,2.5,16,2.5c16,0,23,0,23,6.4c0,7.9-6.9,6.4-23,6.4c-7.7,0-9.1-0.2-14.1-0.9
		C20.1,59.7,12,61.5,11.5,56.9z"/>
	<path class="ws1" d="
		M55,45.5c0,8.8-9.8,15-18.5,15S19,54.3,19,45.5s8.9-16,17.5-16S55,36.7,55,45.5z"/>
	
		<circle class="ws1" cx="37" cy="16" r="13.5"/>
	<path class="st1" d="M54.5,65h-35c-1.1,0-2-0.9-2-2l-4-22.1c0-1.1,0.9-2,2-2h43c1.1,0,2,0.9,2,2l-4,22.1C56.5,64.1,55.6,65,54.5,65
		z"/>
	<path class="st11" d="M12,61.4c0,2.7-2.2,2-5,2s-5,0.8-5-2s2.2-4.9,5-4.9S12,58.7,12,61.4z"/>
</g>
<g id="geek2">
	<path class="st2" d="M11.5,56.9c-0.6-5.8,4.6-10.3,12-10.9c4.5-0.3,10,2.5,16,2.5c16,0,23,0,23,6.4c0,7.9-6.9,6.4-23,6.4
		c-7.7,0-9.1-0.2-14.1-0.9C20.1,59.7,12,61.5,11.5,56.9z"/>
	<path class="st2" d="M55,45.5c0,8.8-9.8,15-18.5,15S19,54.3,19,45.5s8.9-16,17.5-16S55,36.7,55,45.5z"/>
	<circle class="st2" cx="37" cy="16" r="13.5"/>
	<path class="st3" d="M54.5,65h-35c-1.1,0-2-0.9-2-2l-4-22.1c0-1.1,0.9-2,2-2h43c1.1,0,2,0.9,2,2l-4,22.1C56.5,64.1,55.6,65,54.5,65
		z"/>
	<path class="st12" d="M12,61.4c0,2.7-2.2,2-5,2s-5,0.8-5-2s2.2-4.9,5-4.9S12,58.7,12,61.4z"/>
</g>
<g id="semantic">
	<polyline class="st11" points="8.5,24.1 8.5,58.4 23.4,58.4 	"/>
        <polyline class="st11" points="8.3,16.3 8.5,27.4 23.4,27.4 	"/>
        <polyline class="st17" points="27.3,31.3 27.5,42.4 42.4,42.4 	"/>
        <polyline class="st17" points="38.5,12.3 27.4,12.4 27.3,27.3 	"/>
        <polyline class="st18" points="44.3,45.3 44.5,56.4 59.4,56.4 	"/>
        <rect x="54" y="50" class="st6" width="11" height="11"/>
        <rect x="38" y="36" class="st6" width="13" height="13"/>
        <rect x="38" y="6" class="st6" width="13" height="13"/>
        <rect x="20" y="50" class="st6" width="15" height="15"/>
        <rect x="20" y="20" class="st6" width="15" height="15"/>
        <rect x="0" y="0" class="st6" width="17" height="17"/>
</g>
<g id="semantic2">
	<polyline class="st12" points="8.5,24.1 8.5,58.4 23.4,58.4 	"/>
        <polyline class="st12" points="8.3,16.3 8.5,27.4 23.4,27.4 	"/>
        <polyline class="st20" points="27.3,31.3 27.5,42.4 42.4,42.4 	"/>
        <polyline class="st20" points="38.5,12.3 27.4,12.4 27.3,27.3 	"/>
        <polyline class="st21" points="44.3,45.3 44.5,56.4 59.4,56.4 	"/>
        <rect x="54" y="50" class="st3" width="11" height="11"/>
        <rect x="38" y="36" class="st3" width="13" height="13"/>
        <rect x="38" y="6" class="st3" width="13" height="13"/>
        <rect x="20" y="50" class="st3" width="15" height="15"/>
        <rect x="20" y="20" class="st3" width="15" height="15"/>
        <rect x="0" y="0" class="st3" width="17" height="17"/>
</g>
</svg>
